<svg width="125" height="178" viewBox="0 0 125 178" fill="none" xmlns="http://www.w3.org/2000/svg">
<g filter="url(#filter0_d_1_102)">
<path d="M64.8484 169C54.5241 169 45.1989 167.02 36.8729 163.06C28.6135 159.025 21.7862 153.31 16.3909 145.913C11.0622 138.441 7.5986 129.587 6 119.351L27.7809 115.652C29.979 125.515 34.5749 133.211 41.5688 138.74C48.5627 144.194 56.7222 146.921 66.0473 146.921C71.8422 146.921 77.1709 145.913 82.0333 143.895C86.8957 141.803 90.7923 138.852 93.723 135.041C96.7204 131.156 98.2191 126.524 98.2191 121.144C98.2191 118.23 97.7529 115.652 96.8203 113.411C95.9544 111.169 94.7222 109.227 93.1236 107.583C91.5916 105.865 89.6933 104.408 87.4286 103.212C85.2305 101.942 82.7993 100.859 80.135 99.962L43.2673 87.7458C39.6705 86.5504 36.007 85.0187 32.277 83.1508C28.5469 81.2081 25.1166 78.7051 21.986 75.6418C18.922 72.5037 16.4242 68.6558 14.4926 64.0981C12.5609 59.4656 11.5951 53.8619 11.5951 47.2869C11.5951 37.3496 13.8598 28.944 18.3891 22.0701C22.9851 15.1214 29.1797 9.89126 36.9728 6.37958C44.766 2.79319 53.4917 1 63.1499 1C72.8747 1.14943 81.567 3.09206 89.227 6.82789C96.9535 10.5637 103.348 15.9433 108.41 22.9667C113.539 29.9153 117.069 38.3582 119.001 48.2955L96.6205 52.5544C95.6214 46.5023 93.4899 41.3095 90.2261 36.976C86.9623 32.5677 82.9658 29.2055 78.2366 26.8893C73.5074 24.4983 68.3786 23.2655 62.8501 23.1908C57.5215 23.0414 52.6258 23.938 48.163 25.8806C43.7669 27.8232 40.2366 30.5504 37.5723 34.062C34.9746 37.5737 33.6757 41.6084 33.6757 46.1661C33.6757 50.6491 34.8414 54.2729 37.1727 57.0374C39.5039 59.8019 42.3681 62.006 45.7651 63.6498C49.2287 65.2188 52.6591 66.5263 56.0561 67.5724L82.6328 75.978C85.9632 77.024 89.7266 78.4436 93.9229 80.2368C98.1858 81.9553 102.282 84.3836 106.212 87.5217C110.209 90.6598 113.506 94.8439 116.103 100.074C118.701 105.229 120 111.73 120 119.575C120 127.719 118.535 134.892 115.604 141.093C112.673 147.22 108.643 152.376 103.514 156.56C98.4522 160.669 92.5907 163.77 85.9299 165.862C79.2691 167.954 72.2419 169 64.8484 169Z" fill="#C02118"/>
<path d="M36.6582 163.512L36.6534 163.509C28.3212 159.439 21.4304 153.67 15.9869 146.207L15.9838 146.203C10.6045 138.66 7.11503 129.731 5.50599 119.428L5.42986 118.941L5.9163 118.858L27.6972 115.159L28.1656 115.08L28.2689 115.544C30.4453 125.309 34.9863 132.898 41.8771 138.346C48.7782 143.728 56.8278 146.421 66.0473 146.421C71.7821 146.421 77.044 145.423 81.8391 143.434C86.6297 141.373 90.4538 138.472 93.3267 134.737L93.3272 134.736C96.2505 130.947 97.7191 126.424 97.7191 121.144C97.7191 118.283 97.2614 115.773 96.3587 113.603L96.3538 113.591L96.3539 113.591C95.5111 111.409 94.3145 109.525 92.7651 107.932L92.7576 107.924L92.7504 107.916C91.2623 106.247 89.413 104.825 87.1952 103.654L87.1867 103.65L87.1784 103.645C85.0121 102.393 82.6118 101.323 79.9758 100.436C79.9757 100.436 79.9756 100.436 79.9755 100.436L43.11 88.2204L43.1096 88.2203C39.4879 87.0166 35.8024 85.4754 32.0531 83.5978L32.046 83.5943L32.046 83.5942C28.2706 81.628 24.8005 79.0955 21.6363 75.9991L21.6281 75.9912L21.6282 75.9911C18.5155 72.8031 15.985 68.9009 14.0322 64.2932L14.0311 64.2905C12.0674 59.5814 11.0951 53.9085 11.0951 47.2869C11.0951 37.2723 13.3782 28.7661 17.9716 21.7949L17.9721 21.7942C22.6212 14.7652 28.8896 9.47394 36.7657 5.92452C44.6317 2.30494 53.4294 0.5 63.1499 0.5H63.1576V0.500059C72.945 0.650453 81.711 2.60612 89.4454 6.37812C97.2462 10.15 103.704 15.5832 108.814 22.672C113.993 29.6894 117.549 38.2034 119.492 48.2001L119.587 48.6929L119.094 48.7867L96.714 53.0456L96.2106 53.1413L96.1272 52.6358C95.1395 46.6529 93.0359 41.5379 89.8267 37.2768L89.8243 37.2735C86.6061 32.9268 82.671 29.6178 78.0167 27.3383L78.011 27.3355C73.3527 24.9804 68.2992 23.7645 62.8434 23.6908L62.8361 23.6907L62.8361 23.6906C57.5743 23.543 52.7529 24.4282 48.364 26.3384C44.0396 28.2495 40.5805 30.9252 37.9724 34.362C35.4425 37.7831 34.1757 41.7116 34.1757 46.1661C34.1757 50.5603 35.3166 54.0608 37.5549 56.715C39.8377 59.422 42.643 61.5827 45.9772 63.1969C49.421 64.7567 52.8296 66.0557 56.2032 67.0945L56.2069 67.0956L82.7826 75.501L36.6582 163.512ZM36.6582 163.512C45.0589 167.507 54.4588 169.5 64.8484 169.5C72.2897 169.5 79.3676 168.447 86.0797 166.339C92.7964 164.229 98.715 161.1 103.83 156.948L103.831 156.947C109.018 152.715 113.093 147.501 116.055 141.309L116.056 141.307M36.6582 163.512L116.056 141.307M116.056 141.307C119.024 135.027 120.5 127.779 120.5 119.575C120.5 111.679 119.193 105.095 116.55 99.8497C113.925 94.5644 110.584 90.3194 106.522 87.1295C102.56 83.9659 98.4244 81.513 94.1149 79.7752M116.056 141.307L94.1149 79.7752M94.1149 79.7752C89.9099 77.9784 86.1323 76.5531 82.7836 75.5013L94.1149 79.7752Z" stroke="black"/>
</g>
<defs>
<filter id="filter0_d_1_102" x="0.859619" y="0" width="124.14" height="178" filterUnits="userSpaceOnUse" color-interpolation-filters="sRGB">
<feFlood flood-opacity="0" result="BackgroundImageFix"/>
<feColorMatrix in="SourceAlpha" type="matrix" values="0 0 0 0 0 0 0 0 0 0 0 0 0 0 0 0 0 0 127 0" result="hardAlpha"/>
<feOffset dy="4"/>
<feGaussianBlur stdDeviation="2"/>
<feComposite in2="hardAlpha" operator="out"/>
<feColorMatrix type="matrix" values="0 0 0 0 0 0 0 0 0 0 0 0 0 0 0 0 0 0 0.25 0"/>
<feBlend mode="normal" in2="BackgroundImageFix" result="effect1_dropShadow_1_102"/>
<feBlend mode="normal" in="SourceGraphic" in2="effect1_dropShadow_1_102" result="shape"/>
</filter>
</defs>
</svg>
